<svg xmlns="http://www.w3.org/2000/svg" xmlns:xlink="http://www.w3.org/1999/xlink" width="64" zoomAndPan="magnify" viewBox="0 0 48 48" height="64" preserveAspectRatio="xMidYMid meet" version="1.0"><defs><g/><clipPath id="0a673b3ca4"><path d="M 0.488281 0 L 47.507812 0 L 47.507812 47.019531 L 0.488281 47.019531 Z M 0.488281 0 " clip-rule="nonzero"/></clipPath><clipPath id="97cb6629d4"><path d="M 0.488281 7 L 17 7 L 17 37 L 0.488281 37 Z M 0.488281 7 " clip-rule="nonzero"/></clipPath><clipPath id="4a4267735a"><rect x="0" width="48" y="0" height="48"/></clipPath></defs><g clip-path="url(#0a673b3ca4)"><g transform="matrix(1, 0, 0, 1, 0.000000000000000056, 0.000000000000005041)"><g clip-path="url(#4a4267735a)"><g fill="#6e35ff" fill-opacity="0.302"><g transform="translate(3.700018, 39.416942)"><g><path d="M 0.5 0 L 3.296875 -28.890625 L 13.078125 -28.890625 L 15.84375 0 L 10.359375 0 L 9.953125 -4.671875 L 6.453125 -4.671875 L 6.125 0 Z M 6.890625 -9.28125 L 9.515625 -9.28125 L 8.234375 -23.96875 L 7.96875 -23.96875 Z M 6.890625 -9.28125 "/></g></g></g><g fill="#6e35ff" fill-opacity="0.302"><g transform="translate(20.00535, 39.416942)"><g><path d="M 1.28125 0 L 1.28125 -28.890625 L 7.0625 -28.890625 L 7.0625 -4.90625 L 13.015625 -4.90625 L 13.015625 0 Z M 1.28125 0 "/></g></g></g><g fill="#6e35ff" fill-opacity="0.302"><g transform="translate(33.352191, 39.416942)"><g><path d="M 3.765625 0 L 3.765625 -23.328125 L 0.34375 -23.328125 L 0.34375 -28.890625 L 12.984375 -28.890625 L 12.984375 -23.328125 L 9.546875 -23.328125 L 9.546875 0 Z M 3.765625 0 "/></g></g></g><g fill="#6e35ff" fill-opacity="0.502"><g transform="translate(2.094907, 37.811832)"><g><path d="M 0.5 0 L 3.296875 -28.890625 L 13.078125 -28.890625 L 15.84375 0 L 10.359375 0 L 9.953125 -4.671875 L 6.453125 -4.671875 L 6.125 0 Z M 6.890625 -9.28125 L 9.515625 -9.28125 L 8.234375 -23.96875 L 7.96875 -23.96875 Z M 6.890625 -9.28125 "/></g></g></g><g fill="#6e35ff" fill-opacity="0.502"><g transform="translate(18.400239, 37.811832)"><g><path d="M 1.28125 0 L 1.28125 -28.890625 L 7.0625 -28.890625 L 7.0625 -4.90625 L 13.015625 -4.90625 L 13.015625 0 Z M 1.28125 0 "/></g></g></g><g fill="#6e35ff" fill-opacity="0.502"><g transform="translate(31.74708, 37.811832)"><g><path d="M 3.765625 0 L 3.765625 -23.328125 L 0.34375 -23.328125 L 0.34375 -28.890625 L 12.984375 -28.890625 L 12.984375 -23.328125 L 9.546875 -23.328125 L 9.546875 0 Z M 3.765625 0 "/></g></g></g><g clip-path="url(#97cb6629d4)"><g fill="#6e35ff" fill-opacity="1"><g transform="translate(0.489796, 36.206721)"><g><path d="M 0.5 0 L 3.296875 -28.890625 L 13.078125 -28.890625 L 15.84375 0 L 10.359375 0 L 9.953125 -4.671875 L 6.453125 -4.671875 L 6.125 0 Z M 6.890625 -9.28125 L 9.515625 -9.28125 L 8.234375 -23.96875 L 7.96875 -23.96875 Z M 6.890625 -9.28125 "/></g></g></g></g><g fill="#6e35ff" fill-opacity="1"><g transform="translate(16.795128, 36.206721)"><g><path d="M 1.28125 0 L 1.28125 -28.890625 L 7.0625 -28.890625 L 7.0625 -4.90625 L 13.015625 -4.90625 L 13.015625 0 Z M 1.28125 0 "/></g></g></g><g fill="#6e35ff" fill-opacity="1"><g transform="translate(30.141969, 36.206721)"><g><path d="M 3.765625 0 L 3.765625 -23.328125 L 0.34375 -23.328125 L 0.34375 -28.890625 L 12.984375 -28.890625 L 12.984375 -23.328125 L 9.546875 -23.328125 L 9.546875 0 Z M 3.765625 0 "/></g></g></g></g></g></g></svg>